HIERARCHY
ROOT Hips
{
	OFFSET	0.00	0.00	0.00
	CHANNELS 6 Xposition Yposition Zposition Zrotation Xrotation Yrotation
	JOINT LeftUpLeg
	{
		OFFSET	 0.126116	-0.065224	 0.014019
		CHANNELS 3 Zrotation Xrotation Yrotation
		JOINT LeftLeg
		{
			OFFSET	 0.000000	 0.569914	 0.000000
			CHANNELS 3 Zrotation Xrotation Yrotation
			JOINT LeftFoot
			{
				OFFSET	 0.000000	 0.544423	 0.000000
				CHANNELS 3 Zrotation Xrotation Yrotation
				JOINT LeftToeBase
				{
					OFFSET	 0.000000	 0.207117	 0.000000
					CHANNELS 3 Zrotation Xrotation Yrotation
					End Site
					{
						OFFSET	 0.000000	 0.207117	 0.000000
					}
				}
			}
		}
	}
	JOINT RightUpLeg
	{
		OFFSET	-0.124023	-0.065224	 0.008373
		CHANNELS 3 Zrotation Xrotation Yrotation
		JOINT RightLeg
		{
			OFFSET	 0.000000	 0.570047	 0.000000
			CHANNELS 3 Zrotation Xrotation Yrotation
			JOINT RightFoot
			{
				OFFSET	 0.000000	 0.544354	 0.000000
				CHANNELS 3 Zrotation Xrotation Yrotation
				JOINT RightToeBase
				{
					OFFSET	 0.000000	 0.207540	 0.000000
					CHANNELS 3 Zrotation Xrotation Yrotation
					End Site
					{
						OFFSET	 0.000000	 0.207540	 0.000000
					}
				}
			}
		}
	}
	JOINT Spine
	{
		OFFSET	 0.000184	 0.117403	 0.007763
		CHANNELS 3 Zrotation Xrotation Yrotation
		JOINT Spine1
		{
			OFFSET	 0.000000	 0.137269	 0.000000
			CHANNELS 3 Zrotation Xrotation Yrotation
			JOINT Spine2
			{
				OFFSET	 0.000000	 0.156879	 0.000000
				CHANNELS 3 Zrotation Xrotation Yrotation
				JOINT LeftShoulder
				{
					OFFSET	 0.080501	 0.160143	 0.002496
					CHANNELS 3 Zrotation Xrotation Yrotation
					JOINT LeftArm
					{
						OFFSET	 0.000000	 0.164363	 0.000000
						CHANNELS 3 Zrotation Xrotation Yrotation
						JOINT LeftForeArm
						{
							OFFSET	 0.000000	 0.364576	 0.000000
							CHANNELS 3 Zrotation Xrotation Yrotation
							JOINT LeftHand
							{
								OFFSET	 0.000000	 0.360812	 0.000000
								CHANNELS 3 Zrotation Xrotation Yrotation
								JOINT LeftHandIndex1
								{
									OFFSET	 0.000000	 0.086006	 0.000000
									CHANNELS 3 Zrotation Xrotation Yrotation
									JOINT LeftHandIndex2
									{
										OFFSET	 0.000000	 0.047237	 0.000000
										CHANNELS 3 Zrotation Xrotation Yrotation
										JOINT LeftHandIndex3
										{
											OFFSET	-0.004284	 0.038165	 0.000551
											CHANNELS 3 Zrotation Xrotation Yrotation
											End Site
											{
												OFFSET	-0.004284	 0.038165	 0.000551
											}
										}
									}
								}
							}
						}
					}
				}
				JOINT Neck
				{
					OFFSET	 0.000000	 0.176489	 0.000000
					CHANNELS 3 Zrotation Xrotation Yrotation
					JOINT Head
					{
						OFFSET	 0.000000	 0.077941	 0.001747
						CHANNELS 3 Zrotation Xrotation Yrotation
						End Site
						{
							OFFSET	 0.000000	 0.077941	 0.001747
						}
					}
				}
				JOINT RightShoulder
				{
					OFFSET	-0.080363	 0.159706	-0.000306
					CHANNELS 3 Zrotation Xrotation Yrotation
					JOINT RightArm
					{
						OFFSET	 0.000000	 0.164196	 0.000000
						CHANNELS 3 Zrotation Xrotation Yrotation
						JOINT RightForeArm
						{
							OFFSET	 0.000000	 0.365611	 0.000000
							CHANNELS 3 Zrotation Xrotation Yrotation
							JOINT RightHand
							{
								OFFSET	 0.000000	 0.360648	 0.000000
								CHANNELS 3 Zrotation Xrotation Yrotation
								JOINT RightHandIndex1
								{
									OFFSET	 0.000000	 0.069977	 0.000000
									CHANNELS 3 Zrotation Xrotation Yrotation
									JOINT RightHandIndex2
									{
										OFFSET	 0.000000	 0.052305	 0.000000
										CHANNELS 3 Zrotation Xrotation Yrotation
										JOINT RightHandIndex3
										{
											OFFSET	 0.009002	 0.042196	 0.000782
											CHANNELS 3 Zrotation Xrotation Yrotation
											End Site
											{
												OFFSET	 0.009002	 0.042196	 0.000782
											}
										}
									}
								}
							}
						}
					}
				}
			}
		}
	}
}
MOTION
Frames:    6
Frame Time: 0.03333334
-0.006500	 1.275141	-0.267557	 0.838195	 1.925231	-179.763600	 179.473700	 3.381317	-3.080608	 4.233069	-20.500020	 6.426057	 5.496376	 73.556340	-3.934052	 1.331492	 28.938720	-2.729976	 179.828800	-13.784510	 9.143926	-1.469873	-4.837170	-4.224039	 6.398213	 74.715810	-7.380290	-1.322259	 28.807810	 2.086566	-0.966364	 2.936867	-0.821991	-1.215289	 2.053473	-0.905299	-1.131797	-1.875921	-0.041776	-113.437900	 5.234165	 92.915380	 7.720870	 49.777690	 36.563480	 29.471810	-1.458404	 0.299765	-10.009750	 0.912476	-16.202600	-6.580301	 5.266122	 0.000000	 0.000000	 0.000000	 0.000000	 0.000000	 0.000000	 0.000000	 4.429335	-0.496989	-0.151338	 2.750870	 2.227628	 1.889857	 114.203200	-4.344312	-88.471930	-56.675890	 0.927510	 58.623240	-60.323270	-1.957774	-1.079212	-23.526730	-43.705100	-9.468439	-0.359112	 10.564590	 0.744391	 11.977560	 9.299761	-2.092288	-8.358965	 3.141402	 0.104874
-0.007218	 1.275403	-0.265805	 0.782601	 1.903981	-179.407600	 179.446200	 3.541310	-2.757159	 4.239997	-20.530710	 6.647862	 6.151370	 73.455710	-4.652487	 1.331492	 28.938720	-2.729976	 179.805300	-13.678460	 9.487926	-1.470374	-4.838813	-3.915128	 7.492803	 74.607700	-8.505280	-1.321807	 28.801310	 2.099149	-0.971388	 2.910272	-0.990422	-1.106282	 2.100416	-1.078615	-1.138195	-1.945939	 0.027610	-113.436500	 5.220524	 92.889750	 7.271497	 49.270660	 37.122130	 29.462080	-1.457904	 0.299487	-9.953551	 1.384270	-16.974180	-6.580301	 5.266122	 0.000000	 0.000000	 0.000000	 0.000000	 0.000000	 0.000000	 0.000000	 4.382843	-0.503623	-0.067522	 2.430647	 2.216915	 2.070383	 114.213100	-4.409249	-88.422490	-57.325650	 2.318231	 58.576500	-59.403360	-1.939682	-1.047944	-18.480170	-51.534490	-3.497903	-0.359131	 10.565110	 0.744395	 11.977560	 9.300276	-2.092397	-8.358970	 3.141665	 0.104854
-0.007165	 1.275653	-0.263995	 0.729932	 1.890742	-179.257600	 179.437100	 3.627142	-2.617581	 4.234553	-20.506580	 6.687509	 6.208926	 73.364330	-4.743361	 1.331492	 28.938720	-2.729976	 179.788900	-13.573960	 9.626763	-1.470959	-4.840705	-3.798933	 7.854982	 74.517620	-8.894444	-1.321096	 28.791120	 2.117709	-0.975866	 2.902364	-1.121462	-1.030645	 2.136774	-1.203841	-1.128696	-1.977141	 0.113625	-113.435400	 5.217619	 92.873910	 6.590433	 48.868770	 37.783610	 29.525430	-1.460858	 0.301107	-10.134410	 1.970109	-17.603230	-6.580301	 5.266122	 0.000000	 0.000000	 0.000000	 0.000000	 0.000000	 0.000000	 0.000000	 4.370747	-0.508433	 0.003212	 2.173799	 2.218476	 2.235293	 114.222600	-4.470664	-88.375710	-57.851390	 3.256567	 58.358370	-59.628910	-1.944154	-1.055580	-13.920260	-54.751680	 1.164847	-0.359159	 10.565880	 0.744401	 11.977570	 9.301042	-2.092561	-8.358977	 3.142054	 0.104825
-0.004636	 1.275950	-0.261789	 0.675469	 1.901303	-179.749700	 179.499300	 3.551334	-3.046602	 4.201262	-20.358960	 6.134084	 4.295457	 73.279270	-2.788059	 1.331492	 28.938720	-2.729976	 179.769000	-13.422160	 9.115756	-1.471860	-4.843676	-4.285098	 5.975751	 74.441350	-7.011755	-1.319338	 28.766140	 2.160701	-0.978532	 2.953152	-1.084023	-1.001954	 2.066118	-1.123919	-1.087088	-1.853228	 0.276368	-113.435300	 5.249362	 92.886330	 5.371351	 48.439430	 38.565110	 29.729270	-1.469956	 0.306307	-10.973060	 3.875951	-17.801210	-6.580301	 5.266122	 0.000000	 0.000000	 0.000000	 0.000000	 0.000000	 0.000000	 0.000000	 4.468881	-0.508220	 0.048910	 2.060087	 2.262841	 2.391171	 114.232700	-4.536146	-88.325800	-58.229190	 3.596379	 57.236800	-61.440030	-1.979142	-1.117565	-17.989140	-44.642290	-2.910369	-0.359226	 10.567700	 0.744417	 11.977590	 9.302830	-2.092944	-8.358994	 3.142961	 0.104758
-0.002545	 1.276209	-0.259783	 0.633519	 1.909491	 179.841500	 179.558700	 3.477226	-3.402601	 4.169302	-20.216840	 5.664952	 2.691347	 73.186680	-1.149103	 1.331492	 28.938720	-2.729976	 179.767400	-13.296370	 8.694363	-1.473146	-4.847869	-4.686223	 4.429067	 74.368660	-5.471856	-1.317864	 28.745430	 2.196354	-0.979199	 2.994959	-1.121933	-0.935583	 2.039940	-1.127829	-1.070914	-1.765599	 0.411255	-113.435300	 5.275682	 92.896610	 4.019114	 48.041310	 39.498900	 29.885440	-1.476936	 0.310292	-11.515230	 5.082476	-18.090030	-6.580301	 5.266122	 0.000000	 0.000000	 0.000000	 0.000000	 0.000000	 0.000000	 0.000000	 4.550277	-0.507984	 0.086814	 1.965645	 2.299439	 2.520565	 114.241100	-4.590452	-88.284370	-58.779910	 3.787324	 56.262860	-64.071170	-2.026501	-1.209583	-19.272290	-36.485520	-5.482287	-0.359281	 10.569200	 0.744431	 11.977610	 9.304312	-2.093262	-8.359009	 3.143712	 0.104703
-0.000392	 1.276477	-0.257627	 0.592807	 1.917464	 179.426600	 179.624100	 3.396016	-3.763401	 4.134330	-20.061180	 5.180046	 1.053159	 73.073740	 0.524519	 1.331492	 28.938720	-2.729976	 179.776000	-13.169220	 8.268867	-1.474100	-4.850999	-5.090894	 2.875176	 74.283190	-3.931873	-1.316355	 28.724420	 2.232504	-0.978978	 3.037097	-1.195104	-0.850102	 2.038500	-1.167193	-1.062158	-1.688827	 0.547958	-113.435200	 5.302377	 92.907060	 2.531296	 47.660130	 40.552280	 29.936500	-1.479281	 0.311646	-11.966100	 5.994167	-18.439320	-6.580301	 5.266122	 0.000000	 0.000000	 0.000000	 0.000000	 0.000000	 0.000000	 0.000000	 4.632824	-0.507690	 0.125253	 1.869758	 2.336353	 2.651862	 114.249700	-4.645540	-88.242390	-59.512950	 3.979731	 55.230810	-67.468260	-2.081254	-1.331305	-19.410420	-28.494130	-7.774324	-0.359337	 10.570730	 0.744445	 11.977630	 9.305816	-2.093585	-8.359021	 3.144475	 0.104646
